<svg width="427" height="370" viewBox="0 0 427 370" fill="none" xmlns="http://www.w3.org/2000/svg">
<path d="M0 9.92263C0 4.4425 4.44252 0 9.92265 0H417.077C422.558 0 427 4.44252 427 9.92265V360.077C427 365.557 422.557 370 417.077 370H9.92263C4.4425 370 0 365.557 0 360.077V9.92263Z" fill="white"/>
<path d="M98.9919 215.173C99.0912 216.81 100.307 217.766 101.895 217.766C103.805 217.766 104.909 216.463 104.909 214.85C104.909 213.573 104.078 212.357 102.639 212.295L104.835 209.169V208.946H99.3393V210.112H102.837L100.877 213.027V213.275C102.068 212.977 103.545 213.411 103.545 214.863C103.545 215.892 102.875 216.513 101.87 216.513C100.977 216.513 100.356 216.054 100.27 215.173H98.9919ZM109.65 208.797C107.851 208.797 106.412 209.926 106.412 211.786V214.788C106.412 216.662 107.851 217.778 109.65 217.778C111.424 217.778 112.863 216.662 112.863 214.788V211.786C112.863 209.926 111.424 208.797 109.65 208.797ZM109.65 216.5C108.757 216.5 108.05 216.066 107.864 215.235C107.814 214.987 107.777 214.714 107.777 214.416V212.171C107.777 211.873 107.814 211.6 107.864 211.352C108.05 210.509 108.757 210.062 109.65 210.062C110.543 210.062 111.238 210.509 111.424 211.352C111.473 211.6 111.511 211.873 111.511 212.171V214.416C111.511 214.714 111.473 214.987 111.424 215.235C111.238 216.066 110.543 216.5 109.65 216.5ZM117.791 208.797C115.992 208.797 114.553 209.926 114.553 211.786V214.788C114.553 216.662 115.992 217.778 117.791 217.778C119.565 217.778 121.004 216.662 121.004 214.788V211.786C121.004 209.926 119.565 208.797 117.791 208.797ZM117.791 216.5C116.897 216.5 116.19 216.066 116.004 215.235C115.955 214.987 115.918 214.714 115.918 214.416V212.171C115.918 211.873 115.955 211.6 116.004 211.352C116.19 210.509 116.897 210.062 117.791 210.062C118.684 210.062 119.378 210.509 119.565 211.352C119.614 211.6 119.651 211.873 119.651 212.171V214.416C119.651 214.714 119.614 214.987 119.565 215.235C119.378 216.066 118.684 216.5 117.791 216.5Z" fill="#ACACAC"/>
<path d="M308.431 217.617L311.049 213.461C311.433 212.878 311.632 212.32 311.632 211.625C311.632 209.69 310.205 208.735 308.419 208.735C306.62 208.735 305.194 209.69 305.194 211.625C305.194 213.424 306.484 214.453 308.22 214.416C308.506 214.416 308.803 214.342 309.039 214.205L306.856 217.617H308.431ZM308.419 209.963C309.461 209.963 310.205 210.546 310.205 211.625C310.205 212.704 309.461 213.3 308.419 213.3C307.377 213.3 306.62 212.704 306.62 211.625C306.62 210.546 307.364 209.963 308.419 209.963ZM316.218 208.797C314.419 208.797 312.98 209.926 312.98 211.786V214.788C312.98 216.662 314.419 217.778 316.218 217.778C317.992 217.778 319.431 216.662 319.431 214.788V211.786C319.431 209.926 317.992 208.797 316.218 208.797ZM316.218 216.5C315.325 216.5 314.618 216.066 314.432 215.235C314.382 214.987 314.345 214.714 314.345 214.416V212.171C314.345 211.873 314.382 211.6 314.432 211.352C314.618 210.509 315.325 210.062 316.218 210.062C317.111 210.062 317.806 210.509 317.992 211.352C318.042 211.6 318.079 211.873 318.079 212.171V214.416C318.079 214.714 318.042 214.987 317.992 215.235C317.806 216.066 317.111 216.5 316.218 216.5ZM324.359 208.797C322.56 208.797 321.121 209.926 321.121 211.786V214.788C321.121 216.662 322.56 217.778 324.359 217.778C326.133 217.778 327.572 216.662 327.572 214.788V211.786C327.572 209.926 326.133 208.797 324.359 208.797ZM324.359 216.5C323.466 216.5 322.759 216.066 322.573 215.235C322.523 214.987 322.486 214.714 322.486 214.416V212.171C322.486 211.873 322.523 211.6 322.573 211.352C322.759 210.509 323.466 210.062 324.359 210.062C325.252 210.062 325.947 210.509 326.133 211.352C326.182 211.6 326.22 211.873 326.22 212.171V214.416C326.22 214.714 326.182 214.987 326.133 215.235C325.947 216.066 325.252 216.5 324.359 216.5Z" fill="#ACACAC"/>
<path d="M202.363 218.668V219.412L191.801 243.478H186.449L195.239 223.275H184.783V218.668H202.363ZM203.75 236.212H208.393C208.535 238.303 209.952 239.26 212.079 239.26C214.383 239.26 215.836 237.771 215.871 235.503C215.765 231.533 212.079 230.966 208.889 231.533V230.789L213.461 222.921H204.707V218.703H220.479V219.447L215.092 228.095C219.061 228.769 220.869 232.03 220.869 235.467C220.869 239.862 217.75 243.832 212.15 243.832C207.507 243.832 203.927 240.997 203.75 236.212ZM232.746 218.49H238.559L232.888 227.812C233.278 227.599 233.703 227.493 234.164 227.493C239.162 227.316 242.67 230.399 242.67 235.503C242.67 241.174 238.559 243.832 233.278 243.832C227.997 243.832 223.957 241.174 223.957 235.503C223.957 233.695 224.595 231.711 225.552 230.187L232.746 218.49ZM233.278 239.331C235.83 239.331 237.389 238.019 237.389 235.503C237.389 232.951 235.83 231.533 233.278 231.533C230.726 231.533 229.131 232.951 229.131 235.503C229.131 237.807 230.726 239.331 233.278 239.331Z" fill="black"/>
<path d="M128.165 42.3456H128.271L129.738 39.3897L131.525 36.3274H134.906V36.7953L129.802 45.259V51.2134H126.612V45.259L121.487 36.7953V36.3274H124.911L126.761 39.496L128.165 42.3456ZM145.34 46.0458C145.34 49.6397 142.639 51.426 139.938 51.426C137.216 51.426 134.473 49.6397 134.473 46.0458C134.473 42.4945 137.152 40.772 139.853 40.7507C142.596 40.7294 145.34 42.4307 145.34 46.0458ZM137.429 46.0458C137.429 47.8959 138.641 48.8316 139.874 48.8316C141.129 48.8529 142.384 47.9172 142.384 46.0458C142.384 44.217 141.193 43.3664 139.938 43.3664C138.684 43.3664 137.429 44.1957 137.429 46.0458ZM154.675 40.9633H157.653V48.1511C157.653 49.1081 157.695 49.4483 158.61 49.3845L158.631 51.1921C157.185 51.5324 154.888 51.7238 154.888 49.7461C154.314 50.9369 152.825 51.426 151.613 51.426C148.657 51.426 147.807 49.4058 147.807 46.8539V40.9633H150.805V46.8539C150.805 48.4914 151.528 49.0868 152.57 49.0868C153.761 49.1081 154.675 48.1724 154.675 46.7901V40.9633ZM164.319 42.4945C164.744 41.3249 166.041 40.7507 167.296 40.7507C168.083 40.7294 168.891 40.9633 169.486 41.4099L168.827 43.898C168.21 43.494 167.572 43.3238 166.913 43.3451C165.616 43.3451 164.51 44.1957 164.51 45.7694V51.2134H161.597V44.0894C161.597 43.2388 161.512 42.6859 160.576 42.8347V41.0059C162.065 40.6656 164.149 40.6656 164.319 42.4945ZM176.071 43.7917C176.071 38.8368 179.771 36.051 183.684 36.1148C186.683 36.1148 189.872 37.731 190.553 41.4099H187.469C186.81 39.7299 185.47 38.9856 183.684 38.9856C181.047 38.9856 179.282 40.9633 179.282 43.7917C179.282 46.3436 181.005 48.5339 183.663 48.5339C185.513 48.5339 187.023 47.662 187.533 45.8544H190.595C189.957 49.7886 186.789 51.426 183.684 51.426C179.771 51.426 176.071 48.7253 176.071 43.7917ZM198.033 48.6828H200.138V51.2134H192.738V48.6828H194.843V38.7943H192.908V36.3274H199.968V38.7943H198.033V48.6828ZM214.269 40.7507C214.269 41.8352 213.716 42.9198 212.78 43.494C214.162 44.0681 214.907 45.2803 214.907 46.8114C214.907 49.4271 213.163 51.2134 210.186 51.2134H203.274V36.3487H209.59C212.312 36.3487 214.269 37.9649 214.269 40.7507ZM209.356 39.0707H206.443V42.4519H209.356C210.441 42.4519 211.121 41.8565 211.143 40.857C211.164 39.7725 210.462 39.0707 209.356 39.0707ZM209.824 45.0463H206.443V48.4488H209.973C211.058 48.4488 211.696 47.8109 211.759 46.8114C211.781 46.216 211.547 45.6631 211.1 45.3441C210.739 45.0889 210.313 45.0463 209.824 45.0463ZM222.392 48.6828H224.497V51.2134H217.097V48.6828H219.202V38.7943H217.267V36.3274H224.327V38.7943H222.392V48.6828ZM230.802 36.3274V48.3638H237.012V51.2134H227.612V36.3274H230.802ZM243.687 46.7051H246.728C246.791 48.0661 248.28 48.6402 249.726 48.6402C251.044 48.6402 252.576 48.3425 252.576 46.7901C252.576 45.1527 250.747 45.0251 249.322 44.9188C246.621 44.6848 243.899 43.8767 243.899 40.7932C243.899 37.4971 246.6 36.1148 249.556 36.1148C252.342 36.1148 255.234 37.2844 255.234 40.6231H252.257C252.086 39.411 250.832 38.8793 249.556 38.8793C248.259 38.8793 247.025 39.5811 247.025 40.7294C247.025 42.0479 248.322 42.2393 249.875 42.4094C253.022 42.6859 255.723 43.3026 255.723 46.7901C255.723 50.299 252.682 51.3622 249.747 51.426C246.77 51.426 243.687 49.9587 243.687 46.7051ZM268.3 44.6636H265.472C265.11 43.7066 264.345 43.3026 263.324 43.3026C261.921 43.3026 260.73 44.217 260.73 46.0458C260.73 47.8959 261.921 48.938 263.324 48.938C264.26 48.938 265.153 48.3638 265.514 47.2792H268.343C267.917 50.0225 265.599 51.4048 263.239 51.426C260.538 51.4473 257.774 49.661 257.774 46.0458C257.774 42.4519 260.56 40.7507 263.26 40.7507C265.578 40.7507 267.832 41.9841 268.3 44.6636ZM281.069 46.0458C281.069 49.6397 278.368 51.426 275.668 51.426C272.946 51.426 270.202 49.6397 270.202 46.0458C270.202 42.4945 272.882 40.772 275.583 40.7507C278.326 40.7294 281.069 42.4307 281.069 46.0458ZM273.158 46.0458C273.158 47.8959 274.371 48.8316 275.604 48.8316C276.859 48.8529 278.113 47.9172 278.113 46.0458C278.113 44.217 276.922 43.3664 275.668 43.3664C274.413 43.3664 273.158 44.1957 273.158 46.0458ZM286.747 42.4945C287.173 41.3249 288.47 40.7507 289.724 40.7507C290.511 40.7294 291.319 40.9633 291.915 41.4099L291.256 43.898C290.639 43.494 290.001 43.3238 289.342 43.3451C288.044 43.3451 286.939 44.1957 286.939 45.7694V51.2134H284.025V44.0894C284.025 43.2388 283.94 42.6859 283.005 42.8347V41.0059C284.493 40.6656 286.577 40.6656 286.747 42.4945ZM298.447 40.7507C302.189 40.7507 303.763 43.4302 302.976 46.9177H296.044C296.235 48.5977 297.66 48.9592 298.765 49.0656C300.041 49.1293 301.339 48.938 302.572 48.4276L302.912 50.5329C301.7 51.1071 300.297 51.426 298.936 51.426C295.491 51.4898 293.066 49.4271 293.066 45.9608C293.13 42.3881 295.725 40.7507 298.447 40.7507ZM298.447 42.8985C296.958 42.8985 296.32 43.7917 296.065 45.0251H300.573C300.637 43.6853 299.85 42.8985 298.447 42.8985Z" fill="black"/>
<path d="M243.487 197.098C243.487 189.108 240.313 181.445 234.663 175.795C229.013 170.146 221.351 166.972 213.361 166.972C205.371 166.972 197.708 170.146 192.058 175.795C186.408 181.445 183.234 189.108 183.234 197.098L213.361 197.098H243.487Z" fill="#EDEDED"/>
<path d="M234.936 127.187L209.298 182.577C208.341 184.645 209.326 187.079 211.467 187.938C213.608 188.798 216.048 187.738 216.84 185.604L238.069 128.445C238.381 127.606 237.961 126.674 237.119 126.336C236.277 125.998 235.313 126.374 234.936 127.187Z" fill="#2C2C2C"/>
<path d="M98.1719 199.756C98.1719 169.206 110.308 139.907 131.91 118.305C153.512 96.7033 182.811 84.5674 213.361 84.5674V96.0863C185.866 96.0863 159.497 107.009 140.055 126.45C120.613 145.892 109.691 172.261 109.691 199.756H98.1719Z" fill="#E15825"/>
<path d="M215.716 84.5913C229.988 84.8831 244.081 87.8252 257.277 93.2675L252.886 103.916C241.009 99.0182 228.325 96.3704 215.48 96.1078L215.716 84.5913Z" fill="#F18200"/>
<path d="M259.401 94.1689C272.486 99.8747 284.396 107.963 294.525 118.021L286.408 126.195C277.292 117.142 266.573 109.863 254.797 104.728L259.401 94.1689Z" fill="#FCD800"/>
<path d="M296.079 119.595C306.013 129.846 313.955 141.854 319.5 155.007L308.886 159.482C303.895 147.644 296.747 136.837 287.807 127.611L296.079 119.595Z" fill="#A9D161"/>
<path d="M320.525 157.523C325.759 170.803 328.479 184.941 328.546 199.216L317.028 199.27C316.967 186.423 314.519 173.699 309.809 161.746L320.525 157.523Z" fill="#009900"/>
<path d="M74.3243 300.2V300.494L70.1523 310H68.0383L71.5103 302.02H67.3803V300.2H74.3243ZM78.9882 300.06C80.9902 300.06 82.6282 301.292 82.6282 303.406V306.766C82.6282 308.894 80.9902 310.14 78.9882 310.14C76.9582 310.14 75.3202 308.894 75.3202 306.766V303.406C75.3202 301.292 76.9582 300.06 78.9882 300.06ZM78.9882 308.306C79.8422 308.306 80.5282 307.844 80.6262 306.99C80.6542 306.752 80.6682 306.5 80.6682 306.206V303.98C80.6682 303.7 80.6542 303.434 80.6262 303.182C80.5282 302.3 79.8422 301.894 78.9882 301.894C78.0922 301.894 77.4342 302.3 77.3362 303.182C77.3082 303.434 77.2942 303.7 77.2942 303.98V306.206C77.2942 306.5 77.3082 306.752 77.3362 306.99C77.4342 307.844 78.0922 308.306 78.9882 308.306ZM88.121 300.06C90.123 300.06 91.761 301.292 91.761 303.406V306.766C91.761 308.894 90.123 310.14 88.121 310.14C86.091 310.14 84.453 308.894 84.453 306.766V303.406C84.453 301.292 86.091 300.06 88.121 300.06ZM88.121 308.306C88.975 308.306 89.661 307.844 89.759 306.99C89.787 306.752 89.801 306.5 89.801 306.206V303.98C89.801 303.7 89.787 303.434 89.759 303.182C89.661 302.3 88.975 301.894 88.121 301.894C87.225 301.894 86.567 302.3 86.469 303.182C86.441 303.434 86.427 303.7 86.427 303.98V306.206C86.427 306.5 86.441 306.752 86.469 306.99C86.567 307.844 87.225 308.306 88.121 308.306ZM97.2538 300.06C99.2558 300.06 100.894 301.292 100.894 303.406V306.766C100.894 308.894 99.2558 310.14 97.2538 310.14C95.2238 310.14 93.5858 308.894 93.5858 306.766V303.406C93.5858 301.292 95.2238 300.06 97.2538 300.06ZM97.2538 308.306C98.1078 308.306 98.7938 307.844 98.8918 306.99C98.9198 306.752 98.9338 306.5 98.9338 306.206V303.98C98.9338 303.7 98.9198 303.434 98.8918 303.182C98.7938 302.3 98.1078 301.894 97.2538 301.894C96.3578 301.894 95.6998 302.3 95.6018 303.182C95.5738 303.434 95.5598 303.7 95.5598 303.98V306.206C95.5598 306.5 95.5738 306.752 95.6018 306.99C95.6998 307.844 96.3578 308.306 97.2538 308.306ZM102.551 305.674V304.064H104.371V302.272H105.995V304.064H107.829V305.674H105.995V307.48H104.371V305.674H102.551ZM112.89 309.608V299.78H114.836V303.434C115.382 303.21 115.914 303.112 116.404 303.112C118.28 303.098 119.638 304.386 119.638 306.724C119.638 309.356 117.804 310.154 115.746 310.14C114.78 310.126 113.786 309.93 112.89 309.608ZM114.794 305.044V308.39C115.214 308.502 115.606 308.572 115.97 308.558C116.964 308.544 117.678 308.096 117.678 306.724C117.678 305.212 116.978 304.736 116.068 304.694C115.676 304.68 115.242 304.792 114.794 305.044ZM125.406 308.964C125 309.804 123.936 310.14 123.068 310.14C121.808 310.14 120.618 309.37 120.618 308.026C120.618 306.458 121.738 305.94 123.236 305.94C123.852 305.94 124.482 306.024 125.028 306.248V305.548C125.028 304.82 124.258 304.568 123.418 304.568C122.606 304.568 121.738 304.764 121.402 304.988L121.15 303.616C121.864 303.28 122.774 303.112 123.684 303.112C125.42 303.112 126.904 303.658 126.904 305.604V308.04C126.904 308.614 126.89 308.95 127.534 308.908L127.548 310C126.526 310.224 125.406 310.168 125.406 308.964ZM125.028 307.438C124.734 307.298 124.16 307.172 123.614 307.172C123.026 307.172 122.536 307.368 122.536 307.928C122.536 308.418 122.844 308.698 123.46 308.698C124.104 308.698 124.958 308.362 125.028 307.438ZM135.692 310H133.718V306.094C133.76 305.17 133.228 304.666 132.444 304.666C131.702 304.666 131.016 305.184 131.016 306.136V310H129.056V305.338C129.056 304.666 129.028 304.386 128.412 304.456V303.238C129.308 303.084 130.876 302.93 130.876 304.148C131.254 303.364 132.248 303.112 133.032 303.112C134.936 303.112 135.692 304.414 135.692 306.094V310ZM139.377 305.73H139.853C141.407 305.73 141.799 304.638 141.799 303.252H143.647C143.689 304.68 143.367 305.87 142.037 306.57L143.969 309.79V309.986H141.995L140.385 307.186C140.217 307.242 140.035 307.27 139.825 307.27H139.377V309.986H137.431V299.766H139.377V305.73ZM144.845 307.9H146.805C146.819 308.46 147.351 308.712 147.911 308.698C148.485 308.698 149.059 308.53 149.073 307.928C149.073 307.424 148.583 307.368 148.107 307.298C146.749 307.116 144.985 306.976 144.985 305.338C144.985 303.826 146.231 303.112 147.883 303.112C149.493 303.112 150.879 303.84 150.809 305.268H148.961C148.947 304.778 148.471 304.582 147.911 304.582C147.351 304.582 146.875 304.834 146.875 305.282C146.875 305.786 147.407 305.814 147.841 305.856C149.353 306.038 151.075 306.108 151.033 307.914C150.991 309.524 149.521 310.14 147.995 310.14C146.469 310.14 144.915 309.692 144.845 307.9ZM162.358 302.58H160.636C160.636 302.076 160.104 301.754 159.39 301.754C158.76 301.754 158.144 302.062 158.144 302.734C158.144 303.518 158.718 303.798 159.712 303.798V305.394H159.25C158.284 305.436 157.654 306.066 157.654 306.92C157.654 307.746 158.284 308.418 159.292 308.418C160.244 308.418 160.874 307.844 160.916 306.836V303.728H163.562V305.31H162.61V306.822C162.61 308.88 161.378 310.154 159.292 310.154C156.785 310.154 155.568 308.614 155.61 306.99C155.61 305.856 156.184 304.932 157.178 304.442C156.576 304.064 156.254 303.42 156.212 302.734C156.1 300.984 157.71 300.046 159.334 300.046C161.014 300.046 162.358 300.9 162.358 302.58ZM168.823 310V304.652H167.577V303.266H168.851L168.865 302.412C168.865 299.654 170.993 299.318 173.205 299.99L173.009 301.446C172.001 301.068 170.727 301.012 170.727 302.454V303.266H172.855V304.652H170.727V310H168.823ZM173.795 301.166C173.795 299.668 176.091 299.71 176.091 301.166C176.091 302.622 173.795 302.608 173.795 301.166ZM175.923 303.28V310H173.963V303.28H175.923ZM184.624 310H182.65V306.094C182.692 305.17 182.16 304.666 181.376 304.666C180.634 304.666 179.948 305.184 179.948 306.136V310H177.988V305.338C177.988 304.666 177.96 304.386 177.344 304.456V303.238C178.24 303.084 179.808 302.93 179.808 304.148C180.186 303.364 181.18 303.112 181.964 303.112C183.868 303.112 184.624 304.414 184.624 306.094V310ZM190.689 308.964C190.283 309.804 189.219 310.14 188.351 310.14C187.091 310.14 185.901 309.37 185.901 308.026C185.901 306.458 187.021 305.94 188.519 305.94C189.135 305.94 189.765 306.024 190.311 306.248V305.548C190.311 304.82 189.541 304.568 188.701 304.568C187.889 304.568 187.021 304.764 186.685 304.988L186.433 303.616C187.147 303.28 188.057 303.112 188.967 303.112C190.703 303.112 192.187 303.658 192.187 305.604V308.04C192.187 308.614 192.173 308.95 192.817 308.908L192.831 310C191.809 310.224 190.689 310.168 190.689 308.964ZM190.311 307.438C190.017 307.298 189.443 307.172 188.897 307.172C188.309 307.172 187.819 307.368 187.819 307.928C187.819 308.418 188.127 308.698 188.743 308.698C189.387 308.698 190.241 308.362 190.311 307.438ZM200.975 310H199.001V306.094C199.043 305.17 198.511 304.666 197.727 304.666C196.985 304.666 196.299 305.184 196.299 306.136V310H194.339V305.338C194.339 304.666 194.311 304.386 193.695 304.456V303.238C194.591 303.084 196.159 302.93 196.159 304.148C196.537 303.364 197.531 303.112 198.315 303.112C200.219 303.112 200.975 304.414 200.975 306.094V310ZM209.239 305.688H207.377C207.139 305.058 206.635 304.792 205.963 304.792C205.039 304.792 204.255 305.394 204.255 306.598C204.255 307.816 205.039 308.502 205.963 308.502C206.579 308.502 207.167 308.124 207.405 307.41H209.267C208.987 309.216 207.461 310.126 205.907 310.14C204.129 310.154 202.309 308.978 202.309 306.598C202.309 304.232 204.143 303.112 205.921 303.112C207.447 303.112 208.931 303.924 209.239 305.688ZM210.463 301.166C210.463 299.668 212.759 299.71 212.759 301.166C212.759 302.622 210.463 302.608 210.463 301.166ZM212.591 303.28V310H210.631V303.28H212.591ZM218.757 308.964C218.351 309.804 217.287 310.14 216.419 310.14C215.159 310.14 213.969 309.37 213.969 308.026C213.969 306.458 215.089 305.94 216.587 305.94C217.203 305.94 217.833 306.024 218.379 306.248V305.548C218.379 304.82 217.609 304.568 216.769 304.568C215.957 304.568 215.089 304.764 214.753 304.988L214.501 303.616C215.215 303.28 216.125 303.112 217.035 303.112C218.771 303.112 220.255 303.658 220.255 305.604V308.04C220.255 308.614 220.241 308.95 220.885 308.908L220.899 310C219.877 310.224 218.757 310.168 218.757 308.964ZM218.379 307.438C218.085 307.298 217.511 307.172 216.965 307.172C216.377 307.172 215.887 307.368 215.887 307.928C215.887 308.418 216.195 308.698 216.811 308.698C217.455 308.698 218.309 308.362 218.379 307.438ZM222.127 299.752H224.059V307.382C224.059 308.418 224.465 308.628 225.403 308.474L225.473 309.944C223.387 310.322 222.127 309.804 222.127 307.382V299.752ZM229.549 301.166C229.549 299.668 231.845 299.71 231.845 301.166C231.845 302.622 229.549 302.608 229.549 301.166ZM231.677 303.28V310H229.717V303.28H231.677ZM240.377 310H238.403V306.094C238.445 305.17 237.913 304.666 237.129 304.666C236.387 304.666 235.701 305.184 235.701 306.136V310H233.741V305.338C233.741 304.666 233.713 304.386 233.097 304.456V303.238C233.993 303.084 235.561 302.93 235.561 304.148C235.939 303.364 236.933 303.112 237.717 303.112C239.621 303.112 240.377 304.414 240.377 306.094V310ZM241.697 307.9H243.657C243.671 308.46 244.203 308.712 244.763 308.698C245.337 308.698 245.911 308.53 245.925 307.928C245.925 307.424 245.435 307.368 244.959 307.298C243.601 307.116 241.837 306.976 241.837 305.338C241.837 303.826 243.083 303.112 244.735 303.112C246.345 303.112 247.731 303.84 247.661 305.268H245.813C245.799 304.778 245.323 304.582 244.763 304.582C244.203 304.582 243.727 304.834 243.727 305.282C243.727 305.786 244.259 305.814 244.693 305.856C246.205 306.038 247.927 306.108 247.885 307.914C247.843 309.524 246.373 310.14 244.847 310.14C243.321 310.14 241.767 309.692 241.697 307.9ZM251.843 301.166V303.266H254.041V304.736H251.843V307.242C251.843 308.642 253.005 308.712 254.125 308.306L254.307 309.79C251.983 310.434 249.925 310.056 249.925 307.284V304.736L248.651 304.61V303.266H250.065L250.275 301.166H251.843ZM255.416 301.166C255.416 299.668 257.712 299.71 257.712 301.166C257.712 302.622 255.416 302.608 255.416 301.166ZM257.544 303.28V310H255.584V303.28H257.544ZM261.961 301.166V303.266H264.159V304.736H261.961V307.242C261.961 308.642 263.123 308.712 264.243 308.306L264.425 309.79C262.101 310.434 260.043 310.056 260.043 307.284V304.736L258.769 304.61V303.266H260.183L260.393 301.166H261.961ZM270.139 303.252H272.099V307.984C272.099 308.614 272.127 308.838 272.729 308.796L272.743 309.986C271.791 310.21 270.279 310.336 270.279 309.034C269.901 309.818 268.921 310.14 268.123 310.14C266.177 310.14 265.617 308.81 265.617 307.13V303.252H267.591V307.13C267.591 308.208 268.067 308.6 268.753 308.6C269.537 308.614 270.139 307.998 270.139 307.088V303.252ZM276.74 301.166V303.266H278.938V304.736H276.74V307.242C276.74 308.642 277.902 308.712 279.022 308.306L279.204 309.79C276.88 310.434 274.822 310.056 274.822 307.284V304.736L273.548 304.61V303.266H274.962L275.172 301.166H276.74ZM280.313 301.166C280.313 299.668 282.609 299.71 282.609 301.166C282.609 302.622 280.313 302.608 280.313 301.166ZM282.441 303.28V310H280.481V303.28H282.441ZM291.029 306.598C291.029 308.964 289.251 310.14 287.473 310.14C285.681 310.14 283.875 308.964 283.875 306.598C283.875 304.26 285.639 303.126 287.417 303.112C289.223 303.098 291.029 304.218 291.029 306.598ZM285.821 306.598C285.821 307.816 286.619 308.432 287.431 308.432C288.257 308.446 289.083 307.83 289.083 306.598C289.083 305.394 288.299 304.834 287.473 304.834C286.647 304.834 285.821 305.38 285.821 306.598ZM299.303 310H297.329V306.094C297.371 305.17 296.839 304.666 296.055 304.666C295.313 304.666 294.627 305.184 294.627 306.136V310H292.667V305.338C292.667 304.666 292.639 304.386 292.023 304.456V303.238C292.919 303.084 294.487 302.93 294.487 304.148C294.865 303.364 295.859 303.112 296.643 303.112C298.547 303.112 299.303 304.414 299.303 306.094V310ZM300.623 307.9H302.583C302.597 308.46 303.129 308.712 303.689 308.698C304.263 308.698 304.837 308.53 304.851 307.928C304.851 307.424 304.361 307.368 303.885 307.298C302.527 307.116 300.763 306.976 300.763 305.338C300.763 303.826 302.009 303.112 303.661 303.112C305.271 303.112 306.657 303.84 306.587 305.268H304.739C304.725 304.778 304.249 304.582 303.689 304.582C303.129 304.582 302.653 304.834 302.653 305.282C302.653 305.786 303.185 305.814 303.619 305.856C305.131 306.038 306.853 306.108 306.811 307.914C306.769 309.524 305.299 310.14 303.773 310.14C302.247 310.14 300.693 309.692 300.623 307.9ZM311.471 301.166C311.471 299.668 313.767 299.71 313.767 301.166C313.767 302.622 311.471 302.608 311.471 301.166ZM313.599 303.28V310H311.639V303.28H313.599ZM322.299 310H320.325V306.094C320.367 305.17 319.835 304.666 319.051 304.666C318.309 304.666 317.623 305.184 317.623 306.136V310H315.663V305.338C315.663 304.666 315.635 304.386 315.019 304.456V303.238C315.915 303.084 317.483 302.93 317.483 304.148C317.861 303.364 318.855 303.112 319.639 303.112C321.543 303.112 322.299 304.414 322.299 306.094V310ZM330.677 308.334H332.063V310H327.191V308.334H328.577V301.824H327.303V300.2H331.951V301.824H330.677V308.334ZM340.25 310H338.276V306.094C338.318 305.17 337.786 304.666 337.002 304.666C336.26 304.666 335.574 305.184 335.574 306.136V310H333.614V305.338C333.614 304.666 333.586 304.386 332.97 304.456V303.238C333.866 303.084 335.434 302.93 335.434 304.148C335.812 303.364 336.806 303.112 337.59 303.112C339.494 303.112 340.25 304.414 340.25 306.094V310ZM346.75 308.866C346.372 309.706 345.602 310.126 344.72 310.14C342.676 310.182 341.598 308.516 341.598 306.626C341.598 304.484 343.054 303.112 344.804 303.112C345.238 303.112 345.91 303.21 346.372 303.434V299.766H348.332V307.76C348.332 308.418 348.248 308.782 348.962 308.74L348.976 310.014C347.996 310.238 346.792 310.224 346.75 308.866ZM346.428 306.892V305.086C346.008 304.834 345.56 304.778 345.168 304.778C344.258 304.792 343.544 305.408 343.544 306.626C343.544 307.592 343.978 308.404 345.028 308.404C345.882 308.404 346.428 307.718 346.428 306.892ZM350.285 301.166C350.285 299.668 352.581 299.71 352.581 301.166C352.581 302.622 350.285 302.608 350.285 301.166ZM352.413 303.28V310H350.453V303.28H352.413ZM358.58 308.964C358.174 309.804 357.11 310.14 356.242 310.14C354.982 310.14 353.792 309.37 353.792 308.026C353.792 306.458 354.912 305.94 356.41 305.94C357.026 305.94 357.656 306.024 358.202 306.248V305.548C358.202 304.82 357.432 304.568 356.592 304.568C355.78 304.568 354.912 304.764 354.576 304.988L354.324 303.616C355.038 303.28 355.948 303.112 356.858 303.112C358.594 303.112 360.078 303.658 360.078 305.604V308.04C360.078 308.614 360.064 308.95 360.708 308.908L360.722 310C359.7 310.224 358.58 310.168 358.58 308.964ZM358.202 307.438C357.908 307.298 357.334 307.172 356.788 307.172C356.2 307.172 355.71 307.368 355.71 307.928C355.71 308.418 356.018 308.698 356.634 308.698C357.278 308.698 358.132 308.362 358.202 307.438Z" fill="#00A6CA"/>
<path d="M52.1238 325.204C52.3291 324.812 52.6138 324.537 52.9778 324.378C53.3418 324.21 53.7385 324.126 54.1678 324.126C54.7558 324.126 55.2831 324.294 55.7498 324.63L55.4838 325.554C55.2691 325.414 55.0405 325.307 54.7978 325.232C54.5645 325.148 54.3171 325.106 54.0558 325.106C53.8131 325.106 53.5798 325.148 53.3558 325.232C53.1318 325.316 52.9311 325.433 52.7538 325.582C52.5858 325.731 52.4505 325.918 52.3478 326.142C52.2451 326.357 52.1938 326.595 52.1938 326.856V331H51.1158V325.89C51.1158 325.741 51.1111 325.605 51.1018 325.484C51.0925 325.353 51.0598 325.251 51.0038 325.176C50.9571 325.092 50.8778 325.031 50.7658 324.994C50.6538 324.957 50.4998 324.947 50.3038 324.966L50.2898 324.238C50.5511 324.191 50.7891 324.168 51.0038 324.168C51.2278 324.168 51.4191 324.201 51.5778 324.266C51.7458 324.331 51.8765 324.439 51.9698 324.588C52.0631 324.737 52.1145 324.943 52.1238 325.204ZM59.7677 324.126C60.925 324.135 61.7557 324.462 62.2597 325.106C62.7637 325.741 62.9224 326.618 62.7357 327.738H57.4017C57.383 328.13 57.439 328.48 57.5697 328.788C57.7097 329.087 57.901 329.343 58.1437 329.558C58.3864 329.773 58.6757 329.936 59.0117 330.048C59.3477 330.16 59.707 330.216 60.0897 330.216C60.4817 330.216 60.8597 330.174 61.2237 330.09C61.597 330.006 61.9797 329.885 62.3717 329.726L62.5397 330.552C61.7277 330.935 60.9017 331.126 60.0617 331.126C59.5017 331.126 58.9884 331.042 58.5217 330.874C58.055 330.706 57.6537 330.463 57.3177 330.146C56.9817 329.829 56.725 329.446 56.5477 328.998C56.3704 328.541 56.291 328.023 56.3097 327.444C56.3284 326.912 56.431 326.441 56.6177 326.03C56.8044 325.619 57.0517 325.274 57.3597 324.994C57.677 324.705 58.041 324.49 58.4517 324.35C58.8624 324.201 59.301 324.126 59.7677 324.126ZM59.7677 324.994C59.1517 324.994 58.6337 325.157 58.2137 325.484C57.7937 325.811 57.537 326.282 57.4437 326.898H61.8397C61.8584 326.581 61.8164 326.305 61.7137 326.072C61.611 325.829 61.4664 325.629 61.2797 325.47C61.093 325.311 60.869 325.195 60.6077 325.12C60.3464 325.036 60.0664 324.994 59.7677 324.994ZM65.5316 320.738V328.578C65.5316 328.905 65.5456 329.175 65.5736 329.39C65.6016 329.605 65.6576 329.782 65.7416 329.922C65.8256 330.053 65.9376 330.146 66.0776 330.202C66.227 330.258 66.4136 330.286 66.6376 330.286C66.8056 330.286 67.0016 330.272 67.2256 330.244L67.2676 331.042C67.1183 331.061 66.983 331.079 66.8616 331.098C66.7496 331.117 66.6143 331.126 66.4556 331.126C65.7276 331.126 65.205 330.925 64.8876 330.524C64.5796 330.123 64.4256 329.474 64.4256 328.578V320.738H65.5316ZM71.3387 331.476C71.152 331.924 70.956 332.363 70.7507 332.792C70.5454 333.221 70.298 333.576 70.0087 333.856C69.7287 334.145 69.3927 334.332 69.0007 334.416C68.618 334.5 68.1514 334.421 67.6007 334.178L67.7547 333.366C68.072 333.515 68.3474 333.581 68.5807 333.562C68.8234 333.543 69.0287 333.464 69.1967 333.324C69.374 333.193 69.528 333.011 69.6587 332.778C69.7894 332.545 69.9107 332.288 70.0227 332.008L70.4147 331.056L67.3207 324.378V324.266H68.4827L69.8267 327.262L70.9327 329.936H70.9467L71.9687 327.29L73.2007 324.266H74.3067V324.378L71.3387 331.476ZM85.7068 327.612C85.7068 328.2 85.6042 328.713 85.3988 329.152C85.1935 329.591 84.9228 329.959 84.5868 330.258C84.2508 330.547 83.8682 330.767 83.4388 330.916C83.0095 331.056 82.5708 331.126 82.1228 331.126C81.6842 331.126 81.2502 331.051 80.8208 330.902C80.4008 330.753 80.0228 330.533 79.6868 330.244C79.3602 329.945 79.0942 329.581 78.8888 329.152C78.6928 328.713 78.5948 328.2 78.5948 327.612C78.5948 327.024 78.6975 326.511 78.9028 326.072C79.1082 325.633 79.3788 325.274 79.7148 324.994C80.0508 324.705 80.4288 324.49 80.8488 324.35C81.2782 324.201 81.7168 324.126 82.1648 324.126C82.6128 324.126 83.0468 324.201 83.4668 324.35C83.8962 324.49 84.2742 324.705 84.6008 324.994C84.9368 325.283 85.2028 325.647 85.3988 326.086C85.6042 326.515 85.7068 327.024 85.7068 327.612ZM79.7008 327.612C79.7008 328.041 79.7708 328.419 79.9108 328.746C80.0508 329.073 80.2375 329.343 80.4708 329.558C80.7042 329.773 80.9655 329.936 81.2548 330.048C81.5535 330.16 81.8568 330.216 82.1648 330.216C82.4728 330.216 82.7715 330.16 83.0608 330.048C83.3595 329.936 83.6208 329.773 83.8448 329.558C84.0782 329.343 84.2648 329.073 84.4048 328.746C84.5448 328.419 84.6148 328.041 84.6148 327.612C84.6148 327.183 84.5448 326.809 84.4048 326.492C84.2648 326.175 84.0782 325.913 83.8448 325.708C83.6115 325.493 83.3455 325.335 83.0468 325.232C82.7575 325.12 82.4588 325.064 82.1508 325.064C81.8428 325.064 81.5395 325.12 81.2408 325.232C80.9515 325.335 80.6902 325.493 80.4568 325.708C80.2328 325.913 80.0508 326.175 79.9108 326.492C79.7708 326.809 79.7008 327.183 79.7008 327.612ZM92.618 331V327.01C92.618 326.394 92.4407 325.913 92.086 325.568C91.7407 325.213 91.288 325.036 90.728 325.036C90.4387 325.036 90.1727 325.083 89.93 325.176C89.6874 325.269 89.4727 325.4 89.286 325.568C89.1087 325.736 88.9687 325.941 88.866 326.184C88.7634 326.417 88.712 326.674 88.712 326.954V331H87.62V326.184C87.62 325.96 87.6107 325.773 87.592 325.624C87.5827 325.475 87.55 325.358 87.494 325.274C87.438 325.19 87.3587 325.139 87.256 325.12C87.1534 325.092 87.0134 325.087 86.836 325.106L86.822 324.238C87.018 324.21 87.2234 324.187 87.438 324.168C87.6527 324.149 87.8487 324.168 88.026 324.224C88.2034 324.271 88.348 324.373 88.46 324.532C88.5814 324.691 88.642 324.933 88.642 325.26C88.9407 324.803 89.2907 324.499 89.692 324.35C90.1027 324.201 90.546 324.126 91.022 324.126C91.47 324.126 91.862 324.201 92.198 324.35C92.534 324.49 92.814 324.691 93.038 324.952C93.262 325.204 93.43 325.507 93.542 325.862C93.6634 326.217 93.724 326.599 93.724 327.01V331H92.618ZM99.0223 326.1C99.0223 325.335 99.1483 324.639 99.4003 324.014C99.6616 323.389 100.016 322.857 100.464 322.418C100.912 321.979 101.435 321.643 102.032 321.41C102.639 321.177 103.288 321.065 103.978 321.074C104.454 321.074 104.921 321.139 105.378 321.27C105.836 321.391 106.256 321.583 106.638 321.844C107.03 322.096 107.371 322.413 107.66 322.796C107.959 323.179 108.183 323.627 108.332 324.14H107.198C106.9 323.468 106.466 322.969 105.896 322.642C105.327 322.315 104.688 322.152 103.978 322.152C103.418 322.143 102.905 322.236 102.438 322.432C101.972 322.628 101.575 322.903 101.248 323.258C100.922 323.613 100.665 324.033 100.478 324.518C100.301 325.003 100.212 325.531 100.212 326.1C100.212 326.651 100.301 327.169 100.478 327.654C100.656 328.13 100.908 328.545 101.234 328.9C101.57 329.255 101.967 329.535 102.424 329.74C102.891 329.936 103.404 330.034 103.964 330.034C104.72 330.034 105.392 329.852 105.98 329.488C106.568 329.115 106.993 328.573 107.254 327.864H108.388C108.248 328.415 108.029 328.895 107.73 329.306C107.441 329.707 107.1 330.043 106.708 330.314C106.316 330.585 105.882 330.785 105.406 330.916C104.94 331.047 104.464 331.112 103.978 331.112C103.297 331.112 102.653 330.995 102.046 330.762C101.449 330.529 100.926 330.197 100.478 329.768C100.03 329.329 99.6756 328.802 99.4143 328.186C99.1529 327.57 99.0223 326.875 99.0223 326.1ZM114.068 330.062V331H109.504V330.062H111.198V322.124H109.616V321.2H113.956V322.124H112.374V330.062H114.068ZM122.796 323.86C122.796 324.336 122.679 324.756 122.446 325.12C122.222 325.475 121.9 325.731 121.48 325.89C122.04 326.049 122.474 326.329 122.782 326.73C123.09 327.122 123.244 327.626 123.244 328.242C123.244 328.69 123.164 329.087 123.006 329.432C122.856 329.777 122.646 330.067 122.376 330.3C122.105 330.524 121.778 330.697 121.396 330.818C121.013 330.939 120.593 331 120.136 331H115.894V321.2H119.716C120.154 321.2 120.56 321.251 120.934 321.354C121.316 321.457 121.643 321.615 121.914 321.83C122.194 322.045 122.408 322.32 122.558 322.656C122.716 322.992 122.796 323.393 122.796 323.86ZM117.056 322.18V325.512H119.646C119.926 325.512 120.187 325.484 120.43 325.428C120.682 325.372 120.896 325.279 121.074 325.148C121.26 325.017 121.405 324.849 121.508 324.644C121.61 324.439 121.662 324.182 121.662 323.874C121.662 323.557 121.61 323.291 121.508 323.076C121.414 322.861 121.274 322.689 121.088 322.558C120.91 322.427 120.696 322.334 120.444 322.278C120.201 322.213 119.935 322.18 119.646 322.18H117.056ZM117.056 326.492V329.992H120.052C120.341 329.992 120.607 329.959 120.85 329.894C121.092 329.819 121.302 329.712 121.48 329.572C121.666 329.423 121.811 329.241 121.914 329.026C122.016 328.802 122.068 328.541 122.068 328.242C122.077 327.915 122.021 327.64 121.9 327.416C121.788 327.192 121.629 327.015 121.424 326.884C121.218 326.744 120.971 326.646 120.682 326.59C120.402 326.525 120.103 326.492 119.786 326.492H117.056ZM128.971 330.062V331H124.407V330.062H126.101V322.124H124.519V321.2H128.859V322.124H127.277V330.062H128.971ZM131.972 329.95H136.592V331H130.796V321.2H131.972V329.95ZM141.813 328.326C141.832 328.653 141.93 328.933 142.107 329.166C142.285 329.39 142.509 329.572 142.779 329.712C143.05 329.852 143.344 329.955 143.661 330.02C143.988 330.076 144.301 330.104 144.599 330.104C144.889 330.104 145.187 330.076 145.495 330.02C145.813 329.964 146.097 329.866 146.349 329.726C146.611 329.586 146.825 329.399 146.993 329.166C147.161 328.923 147.25 328.625 147.259 328.27C147.259 327.878 147.175 327.575 147.007 327.36C146.839 327.136 146.62 326.968 146.349 326.856C146.079 326.735 145.775 326.655 145.439 326.618C145.113 326.571 144.781 326.525 144.445 326.478C143.997 326.431 143.559 326.361 143.129 326.268C142.709 326.175 142.331 326.035 141.995 325.848C141.659 325.652 141.389 325.4 141.183 325.092C140.978 324.775 140.875 324.369 140.875 323.874C140.875 323.389 140.978 322.973 141.183 322.628C141.398 322.273 141.673 321.984 142.009 321.76C142.345 321.527 142.723 321.354 143.143 321.242C143.573 321.13 144.002 321.074 144.431 321.074C144.851 321.074 145.276 321.125 145.705 321.228C146.135 321.321 146.522 321.475 146.867 321.69C147.222 321.895 147.511 322.166 147.735 322.502C147.959 322.838 148.081 323.244 148.099 323.72H147.007C146.979 323.412 146.881 323.155 146.713 322.95C146.555 322.745 146.354 322.581 146.111 322.46C145.869 322.339 145.603 322.255 145.313 322.208C145.024 322.152 144.739 322.124 144.459 322.124C144.189 322.124 143.909 322.157 143.619 322.222C143.339 322.278 143.078 322.376 142.835 322.516C142.602 322.647 142.411 322.824 142.261 323.048C142.112 323.272 142.037 323.543 142.037 323.86C142.037 324.224 142.117 324.509 142.275 324.714C142.434 324.919 142.639 325.078 142.891 325.19C143.143 325.293 143.423 325.367 143.731 325.414C144.039 325.451 144.343 325.489 144.641 325.526C145.127 325.582 145.593 325.657 146.041 325.75C146.499 325.834 146.9 325.974 147.245 326.17C147.6 326.366 147.88 326.632 148.085 326.968C148.3 327.295 148.407 327.729 148.407 328.27C148.407 328.793 148.291 329.236 148.057 329.6C147.833 329.955 147.539 330.244 147.175 330.468C146.811 330.692 146.405 330.855 145.957 330.958C145.509 331.061 145.061 331.117 144.613 331.126C144.156 331.135 143.699 331.089 143.241 330.986C142.784 330.883 142.369 330.72 141.995 330.496C141.622 330.272 141.314 329.983 141.071 329.628C140.829 329.264 140.698 328.83 140.679 328.326H141.813ZM155.344 326.352C155.158 325.932 154.878 325.619 154.504 325.414C154.14 325.209 153.744 325.106 153.314 325.106C153.006 325.106 152.698 325.157 152.39 325.26C152.092 325.363 151.821 325.517 151.578 325.722C151.345 325.927 151.154 326.189 151.004 326.506C150.864 326.814 150.794 327.178 150.794 327.598C150.794 328.018 150.864 328.387 151.004 328.704C151.154 329.021 151.34 329.287 151.564 329.502C151.798 329.717 152.059 329.88 152.348 329.992C152.647 330.104 152.95 330.16 153.258 330.16C153.706 330.16 154.126 330.043 154.518 329.81C154.92 329.577 155.214 329.222 155.4 328.746H156.464C156.362 329.147 156.203 329.497 155.988 329.796C155.774 330.095 155.522 330.342 155.232 330.538C154.943 330.734 154.626 330.883 154.28 330.986C153.944 331.079 153.599 331.126 153.244 331.126C152.806 331.126 152.372 331.051 151.942 330.902C151.522 330.753 151.144 330.533 150.808 330.244C150.472 329.945 150.202 329.577 149.996 329.138C149.791 328.69 149.688 328.177 149.688 327.598C149.688 327.01 149.791 326.497 149.996 326.058C150.211 325.619 150.486 325.26 150.822 324.98C151.158 324.691 151.541 324.476 151.97 324.336C152.4 324.196 152.834 324.126 153.272 324.126C153.618 324.126 153.954 324.177 154.28 324.28C154.607 324.373 154.91 324.513 155.19 324.7C155.47 324.877 155.713 325.106 155.918 325.386C156.133 325.666 156.292 325.988 156.394 326.352H155.344ZM164.744 327.612C164.744 328.2 164.641 328.713 164.436 329.152C164.231 329.591 163.96 329.959 163.624 330.258C163.288 330.547 162.905 330.767 162.476 330.916C162.047 331.056 161.608 331.126 161.16 331.126C160.721 331.126 160.287 331.051 159.858 330.902C159.438 330.753 159.06 330.533 158.724 330.244C158.397 329.945 158.131 329.581 157.926 329.152C157.73 328.713 157.632 328.2 157.632 327.612C157.632 327.024 157.735 326.511 157.94 326.072C158.145 325.633 158.416 325.274 158.752 324.994C159.088 324.705 159.466 324.49 159.886 324.35C160.315 324.201 160.754 324.126 161.202 324.126C161.65 324.126 162.084 324.201 162.504 324.35C162.933 324.49 163.311 324.705 163.638 324.994C163.974 325.283 164.24 325.647 164.436 326.086C164.641 326.515 164.744 327.024 164.744 327.612ZM158.738 327.612C158.738 328.041 158.808 328.419 158.948 328.746C159.088 329.073 159.275 329.343 159.508 329.558C159.741 329.773 160.003 329.936 160.292 330.048C160.591 330.16 160.894 330.216 161.202 330.216C161.51 330.216 161.809 330.16 162.098 330.048C162.397 329.936 162.658 329.773 162.882 329.558C163.115 329.343 163.302 329.073 163.442 328.746C163.582 328.419 163.652 328.041 163.652 327.612C163.652 327.183 163.582 326.809 163.442 326.492C163.302 326.175 163.115 325.913 162.882 325.708C162.649 325.493 162.383 325.335 162.084 325.232C161.795 325.12 161.496 325.064 161.188 325.064C160.88 325.064 160.577 325.12 160.278 325.232C159.989 325.335 159.727 325.493 159.494 325.708C159.27 325.913 159.088 326.175 158.948 326.492C158.808 326.809 158.738 327.183 158.738 327.612ZM167.651 325.204C167.856 324.812 168.141 324.537 168.505 324.378C168.869 324.21 169.266 324.126 169.695 324.126C170.283 324.126 170.81 324.294 171.277 324.63L171.011 325.554C170.796 325.414 170.568 325.307 170.325 325.232C170.092 325.148 169.844 325.106 169.583 325.106C169.34 325.106 169.107 325.148 168.883 325.232C168.659 325.316 168.458 325.433 168.281 325.582C168.113 325.731 167.978 325.918 167.875 326.142C167.772 326.357 167.721 326.595 167.721 326.856V331H166.643V325.89C166.643 325.741 166.638 325.605 166.629 325.484C166.62 325.353 166.587 325.251 166.531 325.176C166.484 325.092 166.405 325.031 166.293 324.994C166.181 324.957 166.027 324.947 165.831 324.966L165.817 324.238C166.078 324.191 166.316 324.168 166.531 324.168C166.755 324.168 166.946 324.201 167.105 324.266C167.273 324.331 167.404 324.439 167.497 324.588C167.59 324.737 167.642 324.943 167.651 325.204ZM175.295 324.126C176.452 324.135 177.283 324.462 177.787 325.106C178.291 325.741 178.45 326.618 178.263 327.738H172.929C172.91 328.13 172.966 328.48 173.097 328.788C173.237 329.087 173.428 329.343 173.671 329.558C173.914 329.773 174.203 329.936 174.539 330.048C174.875 330.16 175.234 330.216 175.617 330.216C176.009 330.216 176.387 330.174 176.751 330.09C177.124 330.006 177.507 329.885 177.899 329.726L178.067 330.552C177.255 330.935 176.429 331.126 175.589 331.126C175.029 331.126 174.516 331.042 174.049 330.874C173.582 330.706 173.181 330.463 172.845 330.146C172.509 329.829 172.252 329.446 172.075 328.998C171.898 328.541 171.818 328.023 171.837 327.444C171.856 326.912 171.958 326.441 172.145 326.03C172.332 325.619 172.579 325.274 172.887 324.994C173.204 324.705 173.568 324.49 173.979 324.35C174.39 324.201 174.828 324.126 175.295 324.126ZM175.295 324.994C174.679 324.994 174.161 325.157 173.741 325.484C173.321 325.811 173.064 326.282 172.971 326.898H177.367C177.386 326.581 177.344 326.305 177.241 326.072C177.138 325.829 176.994 325.629 176.807 325.47C176.62 325.311 176.396 325.195 176.135 325.12C175.874 325.036 175.594 324.994 175.295 324.994ZM185.124 324.28H187.602V325.078H185.124V328.494C185.124 329.101 185.245 329.544 185.488 329.824C185.73 330.104 186.071 330.244 186.51 330.244C186.874 330.244 187.308 330.151 187.812 329.964L187.938 330.818C187.312 331.023 186.729 331.126 186.188 331.126C185.525 331.126 184.998 330.921 184.606 330.51C184.223 330.099 184.032 329.437 184.032 328.522V325.078L182.59 325.008V324.28H184.102L184.214 322.18H185.124V324.28ZM195.902 327.612C195.902 328.2 195.799 328.713 195.594 329.152C195.389 329.591 195.118 329.959 194.782 330.258C194.446 330.547 194.063 330.767 193.634 330.916C193.205 331.056 192.766 331.126 192.318 331.126C191.879 331.126 191.445 331.051 191.016 330.902C190.596 330.753 190.218 330.533 189.882 330.244C189.555 329.945 189.289 329.581 189.084 329.152C188.888 328.713 188.79 328.2 188.79 327.612C188.79 327.024 188.893 326.511 189.098 326.072C189.303 325.633 189.574 325.274 189.91 324.994C190.246 324.705 190.624 324.49 191.044 324.35C191.473 324.201 191.912 324.126 192.36 324.126C192.808 324.126 193.242 324.201 193.662 324.35C194.091 324.49 194.469 324.705 194.796 324.994C195.132 325.283 195.398 325.647 195.594 326.086C195.799 326.515 195.902 327.024 195.902 327.612ZM189.896 327.612C189.896 328.041 189.966 328.419 190.106 328.746C190.246 329.073 190.433 329.343 190.666 329.558C190.899 329.773 191.161 329.936 191.45 330.048C191.749 330.16 192.052 330.216 192.36 330.216C192.668 330.216 192.967 330.16 193.256 330.048C193.555 329.936 193.816 329.773 194.04 329.558C194.273 329.343 194.46 329.073 194.6 328.746C194.74 328.419 194.81 328.041 194.81 327.612C194.81 327.183 194.74 326.809 194.6 326.492C194.46 326.175 194.273 325.913 194.04 325.708C193.807 325.493 193.541 325.335 193.242 325.232C192.953 325.12 192.654 325.064 192.346 325.064C192.038 325.064 191.735 325.12 191.436 325.232C191.147 325.335 190.885 325.493 190.652 325.708C190.428 325.913 190.246 326.175 190.106 326.492C189.966 326.809 189.896 327.183 189.896 327.612ZM205.75 329.782C205.629 330.015 205.47 330.216 205.274 330.384C205.078 330.552 204.859 330.692 204.616 330.804C204.383 330.916 204.131 330.995 203.86 331.042C203.599 331.098 203.342 331.126 203.09 331.126C202.782 331.126 202.484 331.089 202.194 331.014C201.905 330.939 201.648 330.823 201.424 330.664C201.21 330.496 201.037 330.291 200.906 330.048C200.776 329.796 200.71 329.497 200.71 329.152C200.71 328.779 200.776 328.452 200.906 328.172C201.046 327.892 201.233 327.659 201.466 327.472C201.709 327.285 201.984 327.145 202.292 327.052C202.6 326.959 202.932 326.912 203.286 326.912C203.678 326.912 204.08 326.949 204.49 327.024C204.901 327.089 205.274 327.215 205.61 327.402V326.422C205.61 326.142 205.54 325.909 205.4 325.722C205.27 325.535 205.097 325.391 204.882 325.288C204.677 325.185 204.448 325.115 204.196 325.078C203.954 325.031 203.716 325.008 203.482 325.008C203.09 325.008 202.722 325.05 202.376 325.134C202.031 325.209 201.714 325.33 201.424 325.498L201.242 324.63C201.569 324.462 201.938 324.336 202.348 324.252C202.768 324.168 203.202 324.126 203.65 324.126C204.033 324.126 204.402 324.163 204.756 324.238C205.12 324.313 205.438 324.443 205.708 324.63C205.988 324.807 206.208 325.045 206.366 325.344C206.534 325.643 206.614 326.011 206.604 326.45V329.264C206.604 329.451 206.604 329.619 206.604 329.768C206.614 329.908 206.642 330.025 206.688 330.118C206.735 330.211 206.81 330.277 206.912 330.314C207.024 330.351 207.183 330.356 207.388 330.328L207.402 331.042C207.122 331.089 206.88 331.107 206.674 331.098C206.469 331.089 206.296 331.037 206.156 330.944C206.016 330.851 205.914 330.711 205.848 330.524C205.783 330.337 205.75 330.09 205.75 329.782ZM205.596 328.242C205.382 328.111 205.083 327.999 204.7 327.906C204.318 327.813 203.93 327.766 203.538 327.766C203.324 327.766 203.109 327.789 202.894 327.836C202.689 327.883 202.502 327.957 202.334 328.06C202.176 328.163 202.045 328.298 201.942 328.466C201.84 328.634 201.788 328.839 201.788 329.082C201.788 329.297 201.83 329.479 201.914 329.628C201.998 329.768 202.11 329.88 202.25 329.964C202.39 330.048 202.549 330.109 202.726 330.146C202.913 330.174 203.1 330.188 203.286 330.188C203.51 330.188 203.739 330.16 203.972 330.104C204.215 330.048 204.444 329.959 204.658 329.838C204.882 329.717 205.074 329.563 205.232 329.376C205.4 329.18 205.522 328.947 205.596 328.676V328.242ZM209.964 325.372C210.253 324.905 210.622 324.583 211.07 324.406C211.518 324.219 211.97 324.126 212.428 324.126C212.922 324.126 213.356 324.215 213.73 324.392C214.112 324.569 214.434 324.817 214.696 325.134C214.957 325.442 215.153 325.806 215.284 326.226C215.414 326.646 215.48 327.099 215.48 327.584C215.48 328.125 215.391 328.615 215.214 329.054C215.036 329.483 214.798 329.852 214.5 330.16C214.21 330.468 213.865 330.706 213.464 330.874C213.072 331.042 212.661 331.126 212.232 331.126C211.877 331.126 211.522 331.084 211.168 331C210.813 330.925 210.463 330.771 210.118 330.538V334.472H209.026V326.506C209.026 326.291 209.026 326.091 209.026 325.904C209.026 325.708 209.002 325.545 208.956 325.414C208.918 325.274 208.844 325.171 208.732 325.106C208.62 325.041 208.452 325.022 208.228 325.05L208.214 324.238C208.746 324.145 209.175 324.177 209.502 324.336C209.828 324.495 209.982 324.84 209.964 325.372ZM210.09 329.516C210.398 329.759 210.715 329.927 211.042 330.02C211.378 330.113 211.709 330.16 212.036 330.16C212.344 330.16 212.638 330.104 212.918 329.992C213.207 329.871 213.454 329.703 213.66 329.488C213.874 329.264 214.042 328.993 214.164 328.676C214.294 328.359 214.36 327.995 214.36 327.584C214.36 327.248 214.318 326.931 214.234 326.632C214.159 326.333 214.033 326.072 213.856 325.848C213.678 325.624 213.454 325.447 213.184 325.316C212.913 325.185 212.591 325.12 212.218 325.12C211.891 325.12 211.597 325.181 211.336 325.302C211.084 325.414 210.864 325.573 210.678 325.778C210.5 325.974 210.36 326.207 210.258 326.478C210.155 326.739 210.099 327.015 210.09 327.304V329.516ZM218.317 325.372C218.606 324.905 218.975 324.583 219.423 324.406C219.871 324.219 220.324 324.126 220.781 324.126C221.276 324.126 221.71 324.215 222.083 324.392C222.466 324.569 222.788 324.817 223.049 325.134C223.31 325.442 223.506 325.806 223.637 326.226C223.768 326.646 223.833 327.099 223.833 327.584C223.833 328.125 223.744 328.615 223.567 329.054C223.39 329.483 223.152 329.852 222.853 330.16C222.564 330.468 222.218 330.706 221.817 330.874C221.425 331.042 221.014 331.126 220.585 331.126C220.23 331.126 219.876 331.084 219.521 331C219.166 330.925 218.816 330.771 218.471 330.538V334.472H217.379V326.506C217.379 326.291 217.379 326.091 217.379 325.904C217.379 325.708 217.356 325.545 217.309 325.414C217.272 325.274 217.197 325.171 217.085 325.106C216.973 325.041 216.805 325.022 216.581 325.05L216.567 324.238C217.099 324.145 217.528 324.177 217.855 324.336C218.182 324.495 218.336 324.84 218.317 325.372ZM218.443 329.516C218.751 329.759 219.068 329.927 219.395 330.02C219.731 330.113 220.062 330.16 220.389 330.16C220.697 330.16 220.991 330.104 221.271 329.992C221.56 329.871 221.808 329.703 222.013 329.488C222.228 329.264 222.396 328.993 222.517 328.676C222.648 328.359 222.713 327.995 222.713 327.584C222.713 327.248 222.671 326.931 222.587 326.632C222.512 326.333 222.386 326.072 222.209 325.848C222.032 325.624 221.808 325.447 221.537 325.316C221.266 325.185 220.944 325.12 220.571 325.12C220.244 325.12 219.95 325.181 219.689 325.302C219.437 325.414 219.218 325.573 219.031 325.778C218.854 325.974 218.714 326.207 218.611 326.478C218.508 326.739 218.452 327.015 218.443 327.304V329.516ZM226.755 325.204C226.96 324.812 227.245 324.537 227.609 324.378C227.973 324.21 228.369 324.126 228.799 324.126C229.387 324.126 229.914 324.294 230.381 324.63L230.115 325.554C229.9 325.414 229.671 325.307 229.429 325.232C229.195 325.148 228.948 325.106 228.687 325.106C228.444 325.106 228.211 325.148 227.987 325.232C227.763 325.316 227.562 325.433 227.385 325.582C227.217 325.731 227.081 325.918 226.979 326.142C226.876 326.357 226.825 326.595 226.825 326.856V331H225.747V325.89C225.747 325.741 225.742 325.605 225.733 325.484C225.723 325.353 225.691 325.251 225.635 325.176C225.588 325.092 225.509 325.031 225.397 324.994C225.285 324.957 225.131 324.947 224.935 324.966L224.921 324.238C225.182 324.191 225.42 324.168 225.635 324.168C225.859 324.168 226.05 324.201 226.209 324.266C226.377 324.331 226.507 324.439 226.601 324.588C226.694 324.737 226.745 324.943 226.755 325.204ZM238.053 327.612C238.053 328.2 237.95 328.713 237.745 329.152C237.539 329.591 237.269 329.959 236.933 330.258C236.597 330.547 236.214 330.767 235.785 330.916C235.355 331.056 234.917 331.126 234.469 331.126C234.03 331.126 233.596 331.051 233.167 330.902C232.747 330.753 232.369 330.533 232.033 330.244C231.706 329.945 231.44 329.581 231.235 329.152C231.039 328.713 230.941 328.2 230.941 327.612C230.941 327.024 231.043 326.511 231.249 326.072C231.454 325.633 231.725 325.274 232.061 324.994C232.397 324.705 232.775 324.49 233.195 324.35C233.624 324.201 234.063 324.126 234.511 324.126C234.959 324.126 235.393 324.201 235.813 324.35C236.242 324.49 236.62 324.705 236.947 324.994C237.283 325.283 237.549 325.647 237.745 326.086C237.95 326.515 238.053 327.024 238.053 327.612ZM232.047 327.612C232.047 328.041 232.117 328.419 232.257 328.746C232.397 329.073 232.583 329.343 232.817 329.558C233.05 329.773 233.311 329.936 233.601 330.048C233.899 330.16 234.203 330.216 234.511 330.216C234.819 330.216 235.117 330.16 235.407 330.048C235.705 329.936 235.967 329.773 236.191 329.558C236.424 329.343 236.611 329.073 236.751 328.746C236.891 328.419 236.961 328.041 236.961 327.612C236.961 327.183 236.891 326.809 236.751 326.492C236.611 326.175 236.424 325.913 236.191 325.708C235.957 325.493 235.691 325.335 235.393 325.232C235.103 325.12 234.805 325.064 234.497 325.064C234.189 325.064 233.885 325.12 233.587 325.232C233.297 325.335 233.036 325.493 232.803 325.708C232.579 325.913 232.397 326.175 232.257 326.492C232.117 326.809 232.047 327.183 232.047 327.612ZM241.945 331.056L238.739 324.378V324.252H239.929L241.077 326.786L242.197 329.404L243.317 326.744L244.423 324.252H245.599V324.378L242.407 331.056H241.945ZM249.752 324.126C250.909 324.135 251.74 324.462 252.244 325.106C252.748 325.741 252.907 326.618 252.72 327.738H247.386C247.367 328.13 247.423 328.48 247.554 328.788C247.694 329.087 247.885 329.343 248.128 329.558C248.371 329.773 248.66 329.936 248.996 330.048C249.332 330.16 249.691 330.216 250.074 330.216C250.466 330.216 250.844 330.174 251.208 330.09C251.581 330.006 251.964 329.885 252.356 329.726L252.524 330.552C251.712 330.935 250.886 331.126 250.046 331.126C249.486 331.126 248.973 331.042 248.506 330.874C248.039 330.706 247.638 330.463 247.302 330.146C246.966 329.829 246.709 329.446 246.532 328.998C246.355 328.541 246.275 328.023 246.294 327.444C246.313 326.912 246.415 326.441 246.602 326.03C246.789 325.619 247.036 325.274 247.344 324.994C247.661 324.705 248.025 324.49 248.436 324.35C248.847 324.201 249.285 324.126 249.752 324.126ZM249.752 324.994C249.136 324.994 248.618 325.157 248.198 325.484C247.778 325.811 247.521 326.282 247.428 326.898H251.824C251.843 326.581 251.801 326.305 251.698 326.072C251.595 325.829 251.451 325.629 251.264 325.47C251.077 325.311 250.853 325.195 250.592 325.12C250.331 325.036 250.051 324.994 249.752 324.994ZM259.139 320.738V328.578C259.139 328.905 259.153 329.175 259.181 329.39C259.209 329.605 259.265 329.782 259.349 329.922C259.433 330.053 259.545 330.146 259.685 330.202C259.834 330.258 260.021 330.286 260.245 330.286C260.413 330.286 260.609 330.272 260.833 330.244L260.875 331.042C260.726 331.061 260.59 331.079 260.469 331.098C260.357 331.117 260.222 331.126 260.063 331.126C259.335 331.126 258.812 330.925 258.495 330.524C258.187 330.123 258.033 329.474 258.033 328.578V320.738H259.139ZM268.637 327.612C268.637 328.2 268.534 328.713 268.329 329.152C268.123 329.591 267.853 329.959 267.517 330.258C267.181 330.547 266.798 330.767 266.369 330.916C265.939 331.056 265.501 331.126 265.053 331.126C264.614 331.126 264.18 331.051 263.751 330.902C263.331 330.753 262.953 330.533 262.617 330.244C262.29 329.945 262.024 329.581 261.819 329.152C261.623 328.713 261.525 328.2 261.525 327.612C261.525 327.024 261.627 326.511 261.833 326.072C262.038 325.633 262.309 325.274 262.645 324.994C262.981 324.705 263.359 324.49 263.779 324.35C264.208 324.201 264.647 324.126 265.095 324.126C265.543 324.126 265.977 324.201 266.397 324.35C266.826 324.49 267.204 324.705 267.531 324.994C267.867 325.283 268.133 325.647 268.329 326.086C268.534 326.515 268.637 327.024 268.637 327.612ZM262.631 327.612C262.631 328.041 262.701 328.419 262.841 328.746C262.981 329.073 263.167 329.343 263.401 329.558C263.634 329.773 263.895 329.936 264.185 330.048C264.483 330.16 264.787 330.216 265.095 330.216C265.403 330.216 265.701 330.16 265.991 330.048C266.289 329.936 266.551 329.773 266.775 329.558C267.008 329.343 267.195 329.073 267.335 328.746C267.475 328.419 267.545 328.041 267.545 327.612C267.545 327.183 267.475 326.809 267.335 326.492C267.195 326.175 267.008 325.913 266.775 325.708C266.541 325.493 266.275 325.335 265.977 325.232C265.687 325.12 265.389 325.064 265.081 325.064C264.773 325.064 264.469 325.12 264.171 325.232C263.881 325.335 263.62 325.493 263.387 325.708C263.163 325.913 262.981 326.175 262.841 326.492C262.701 326.809 262.631 327.183 262.631 327.612ZM274.862 329.782C274.74 330.015 274.582 330.216 274.386 330.384C274.19 330.552 273.97 330.692 273.728 330.804C273.494 330.916 273.242 330.995 272.972 331.042C272.71 331.098 272.454 331.126 272.202 331.126C271.894 331.126 271.595 331.089 271.306 331.014C271.016 330.939 270.76 330.823 270.536 330.664C270.321 330.496 270.148 330.291 270.018 330.048C269.887 329.796 269.822 329.497 269.822 329.152C269.822 328.779 269.887 328.452 270.018 328.172C270.158 327.892 270.344 327.659 270.578 327.472C270.82 327.285 271.096 327.145 271.404 327.052C271.712 326.959 272.043 326.912 272.398 326.912C272.79 326.912 273.191 326.949 273.602 327.024C274.012 327.089 274.386 327.215 274.722 327.402V326.422C274.722 326.142 274.652 325.909 274.512 325.722C274.381 325.535 274.208 325.391 273.994 325.288C273.788 325.185 273.56 325.115 273.308 325.078C273.065 325.031 272.827 325.008 272.594 325.008C272.202 325.008 271.833 325.05 271.488 325.134C271.142 325.209 270.825 325.33 270.536 325.498L270.354 324.63C270.68 324.462 271.049 324.336 271.46 324.252C271.88 324.168 272.314 324.126 272.762 324.126C273.144 324.126 273.513 324.163 273.868 324.238C274.232 324.313 274.549 324.443 274.82 324.63C275.1 324.807 275.319 325.045 275.478 325.344C275.646 325.643 275.725 326.011 275.716 326.45V329.264C275.716 329.451 275.716 329.619 275.716 329.768C275.725 329.908 275.753 330.025 275.8 330.118C275.846 330.211 275.921 330.277 276.024 330.314C276.136 330.351 276.294 330.356 276.5 330.328L276.514 331.042C276.234 331.089 275.991 331.107 275.786 331.098C275.58 331.089 275.408 331.037 275.268 330.944C275.128 330.851 275.025 330.711 274.96 330.524C274.894 330.337 274.862 330.09 274.862 329.782ZM274.708 328.242C274.493 328.111 274.194 327.999 273.812 327.906C273.429 327.813 273.042 327.766 272.65 327.766C272.435 327.766 272.22 327.789 272.006 327.836C271.8 327.883 271.614 327.957 271.446 328.06C271.287 328.163 271.156 328.298 271.054 328.466C270.951 328.634 270.9 328.839 270.9 329.082C270.9 329.297 270.942 329.479 271.026 329.628C271.11 329.768 271.222 329.88 271.362 329.964C271.502 330.048 271.66 330.109 271.838 330.146C272.024 330.174 272.211 330.188 272.398 330.188C272.622 330.188 272.85 330.16 273.084 330.104C273.326 330.048 273.555 329.959 273.77 329.838C273.994 329.717 274.185 329.563 274.344 329.376C274.512 329.18 274.633 328.947 274.708 328.676V328.242ZM283.163 331V327.01C283.163 326.394 282.986 325.913 282.631 325.568C282.286 325.213 281.833 325.036 281.273 325.036C280.984 325.036 280.718 325.083 280.475 325.176C280.232 325.269 280.018 325.4 279.831 325.568C279.654 325.736 279.514 325.941 279.411 326.184C279.308 326.417 279.257 326.674 279.257 326.954V331H278.165V326.184C278.165 325.96 278.156 325.773 278.137 325.624C278.128 325.475 278.095 325.358 278.039 325.274C277.983 325.19 277.904 325.139 277.801 325.12C277.698 325.092 277.558 325.087 277.381 325.106L277.367 324.238C277.563 324.21 277.768 324.187 277.983 324.168C278.198 324.149 278.394 324.168 278.571 324.224C278.748 324.271 278.893 324.373 279.005 324.532C279.126 324.691 279.187 324.933 279.187 325.26C279.486 324.803 279.836 324.499 280.237 324.35C280.648 324.201 281.091 324.126 281.567 324.126C282.015 324.126 282.407 324.201 282.743 324.35C283.079 324.49 283.359 324.691 283.583 324.952C283.807 325.204 283.975 325.507 284.087 325.862C284.208 326.217 284.269 326.599 284.269 327.01V331H283.163ZM286.868 329.096C286.887 329.311 286.952 329.493 287.064 329.642C287.185 329.782 287.335 329.899 287.512 329.992C287.699 330.085 287.904 330.151 288.128 330.188C288.352 330.225 288.576 330.244 288.8 330.244C289.033 330.244 289.262 330.221 289.486 330.174C289.71 330.127 289.911 330.057 290.088 329.964C290.265 329.871 290.41 329.749 290.522 329.6C290.634 329.451 290.695 329.273 290.704 329.068C290.704 328.872 290.662 328.713 290.578 328.592C290.503 328.471 290.387 328.373 290.228 328.298C290.069 328.214 289.869 328.149 289.626 328.102C289.393 328.046 289.122 327.995 288.814 327.948C288.478 327.911 288.142 327.859 287.806 327.794C287.479 327.729 287.181 327.631 286.91 327.5C286.649 327.369 286.429 327.197 286.252 326.982C286.084 326.758 285.995 326.469 285.986 326.114C285.977 325.769 286.051 325.47 286.21 325.218C286.369 324.966 286.579 324.761 286.84 324.602C287.111 324.434 287.414 324.313 287.75 324.238C288.086 324.163 288.431 324.126 288.786 324.126C289.131 324.126 289.472 324.168 289.808 324.252C290.153 324.327 290.457 324.443 290.718 324.602C290.989 324.761 291.203 324.961 291.362 325.204C291.521 325.447 291.595 325.731 291.586 326.058H290.536C290.536 325.881 290.485 325.727 290.382 325.596C290.289 325.456 290.158 325.344 289.99 325.26C289.831 325.167 289.645 325.101 289.43 325.064C289.225 325.017 289.01 324.994 288.786 324.994C288.571 324.994 288.357 325.017 288.142 325.064C287.927 325.101 287.736 325.162 287.568 325.246C287.4 325.33 287.265 325.442 287.162 325.582C287.059 325.722 287.013 325.89 287.022 326.086C287.031 326.413 287.19 326.641 287.498 326.772C287.815 326.893 288.287 327.001 288.912 327.094C289.267 327.141 289.617 327.197 289.962 327.262C290.307 327.318 290.615 327.416 290.886 327.556C291.157 327.687 291.371 327.873 291.53 328.116C291.698 328.349 291.777 328.667 291.768 329.068C291.768 329.413 291.684 329.717 291.516 329.978C291.357 330.23 291.143 330.44 290.872 330.608C290.601 330.776 290.284 330.902 289.92 330.986C289.565 331.07 289.192 331.117 288.8 331.126C288.436 331.126 288.077 331.093 287.722 331.028C287.377 330.963 287.064 330.851 286.784 330.692C286.513 330.533 286.289 330.323 286.112 330.062C285.935 329.801 285.832 329.479 285.804 329.096H286.868ZM297.533 321.2H298.681L293.949 330.986H292.801L297.533 321.2ZM304.792 326.352C304.605 325.932 304.325 325.619 303.952 325.414C303.588 325.209 303.191 325.106 302.762 325.106C302.454 325.106 302.146 325.157 301.838 325.26C301.539 325.363 301.268 325.517 301.026 325.722C300.792 325.927 300.601 326.189 300.452 326.506C300.312 326.814 300.242 327.178 300.242 327.598C300.242 328.018 300.312 328.387 300.452 328.704C300.601 329.021 300.788 329.287 301.012 329.502C301.245 329.717 301.506 329.88 301.796 329.992C302.094 330.104 302.398 330.16 302.706 330.16C303.154 330.16 303.574 330.043 303.966 329.81C304.367 329.577 304.661 329.222 304.848 328.746H305.912C305.809 329.147 305.65 329.497 305.436 329.796C305.221 330.095 304.969 330.342 304.68 330.538C304.39 330.734 304.073 330.883 303.728 330.986C303.392 331.079 303.046 331.126 302.692 331.126C302.253 331.126 301.819 331.051 301.39 330.902C300.97 330.753 300.592 330.533 300.256 330.244C299.92 329.945 299.649 329.577 299.444 329.138C299.238 328.69 299.136 328.177 299.136 327.598C299.136 327.01 299.238 326.497 299.444 326.058C299.658 325.619 299.934 325.26 300.27 324.98C300.606 324.691 300.988 324.476 301.418 324.336C301.847 324.196 302.281 324.126 302.72 324.126C303.065 324.126 303.401 324.177 303.728 324.28C304.054 324.373 304.358 324.513 304.638 324.7C304.918 324.877 305.16 325.106 305.366 325.386C305.58 325.666 305.739 325.988 305.842 326.352H304.792ZM308.731 325.204C308.937 324.812 309.221 324.537 309.585 324.378C309.949 324.21 310.346 324.126 310.775 324.126C311.363 324.126 311.891 324.294 312.357 324.63L312.091 325.554C311.877 325.414 311.648 325.307 311.405 325.232C311.172 325.148 310.925 325.106 310.663 325.106C310.421 325.106 310.187 325.148 309.963 325.232C309.739 325.316 309.539 325.433 309.361 325.582C309.193 325.731 309.058 325.918 308.955 326.142C308.853 326.357 308.801 326.595 308.801 326.856V331H307.723V325.89C307.723 325.741 307.719 325.605 307.709 325.484C307.7 325.353 307.667 325.251 307.611 325.176C307.565 325.092 307.485 325.031 307.373 324.994C307.261 324.957 307.107 324.947 306.911 324.966L306.897 324.238C307.159 324.191 307.397 324.168 307.611 324.168C307.835 324.168 308.027 324.201 308.185 324.266C308.353 324.331 308.484 324.439 308.577 324.588C308.671 324.737 308.722 324.943 308.731 325.204ZM316.375 324.126C317.532 324.135 318.363 324.462 318.867 325.106C319.371 325.741 319.53 326.618 319.343 327.738H314.009C313.99 328.13 314.046 328.48 314.177 328.788C314.317 329.087 314.508 329.343 314.751 329.558C314.994 329.773 315.283 329.936 315.619 330.048C315.955 330.16 316.314 330.216 316.697 330.216C317.089 330.216 317.467 330.174 317.831 330.09C318.204 330.006 318.587 329.885 318.979 329.726L319.147 330.552C318.335 330.935 317.509 331.126 316.669 331.126C316.109 331.126 315.596 331.042 315.129 330.874C314.662 330.706 314.261 330.463 313.925 330.146C313.589 329.829 313.332 329.446 313.155 328.998C312.978 328.541 312.898 328.023 312.917 327.444C312.936 326.912 313.038 326.441 313.225 326.03C313.412 325.619 313.659 325.274 313.967 324.994C314.284 324.705 314.648 324.49 315.059 324.35C315.47 324.201 315.908 324.126 316.375 324.126ZM316.375 324.994C315.759 324.994 315.241 325.157 314.821 325.484C314.401 325.811 314.144 326.282 314.051 326.898H318.447C318.466 326.581 318.424 326.305 318.321 326.072C318.218 325.829 318.074 325.629 317.887 325.47C317.7 325.311 317.476 325.195 317.215 325.12C316.954 325.036 316.674 324.994 316.375 324.994ZM326.213 329.558C325.98 330.071 325.648 330.459 325.219 330.72C324.799 330.981 324.318 331.117 323.777 331.126C323.273 331.126 322.825 331.033 322.433 330.846C322.05 330.659 321.728 330.407 321.467 330.09C321.206 329.763 321.005 329.39 320.865 328.97C320.734 328.541 320.669 328.088 320.669 327.612C320.669 327.071 320.758 326.585 320.935 326.156C321.112 325.717 321.346 325.349 321.635 325.05C321.934 324.751 322.279 324.523 322.671 324.364C323.063 324.205 323.478 324.126 323.917 324.126C324.272 324.126 324.626 324.182 324.981 324.294C325.336 324.397 325.686 324.565 326.031 324.798V320.752H327.123V328.774C327.123 328.998 327.118 329.208 327.109 329.404C327.1 329.591 327.114 329.754 327.151 329.894C327.198 330.025 327.277 330.123 327.389 330.188C327.501 330.244 327.678 330.258 327.921 330.23L327.935 331.028C327.664 331.075 327.422 331.093 327.207 331.084C326.992 331.075 326.81 331.019 326.661 330.916C326.512 330.804 326.4 330.641 326.325 330.426C326.25 330.211 326.213 329.922 326.213 329.558ZM326.059 325.806C325.732 325.563 325.392 325.381 325.037 325.26C324.682 325.139 324.342 325.083 324.015 325.092C323.707 325.092 323.418 325.148 323.147 325.26C322.876 325.372 322.638 325.535 322.433 325.75C322.228 325.965 322.064 326.231 321.943 326.548C321.831 326.856 321.775 327.211 321.775 327.612C321.775 327.948 321.817 328.27 321.901 328.578C321.994 328.886 322.13 329.157 322.307 329.39C322.484 329.614 322.708 329.796 322.979 329.936C323.25 330.076 323.567 330.146 323.931 330.146C324.248 330.146 324.538 330.085 324.799 329.964C325.06 329.843 325.28 329.684 325.457 329.488C325.644 329.283 325.788 329.045 325.891 328.774C325.994 328.503 326.05 328.214 326.059 327.906V325.806ZM329.399 322.026C329.399 321.793 329.469 321.62 329.609 321.508C329.759 321.396 329.917 321.34 330.085 321.34C330.263 321.34 330.421 321.396 330.561 321.508C330.711 321.62 330.785 321.793 330.785 322.026C330.785 322.259 330.711 322.437 330.561 322.558C330.421 322.67 330.263 322.726 330.085 322.726C329.917 322.726 329.759 322.67 329.609 322.558C329.469 322.437 329.399 322.259 329.399 322.026ZM330.631 331H329.539V324.252H330.631V331ZM334.585 324.28H337.063V325.078H334.585V328.494C334.585 329.101 334.706 329.544 334.949 329.824C335.191 330.104 335.532 330.244 335.971 330.244C336.335 330.244 336.769 330.151 337.273 329.964L337.399 330.818C336.773 331.023 336.19 331.126 335.649 331.126C334.986 331.126 334.459 330.921 334.067 330.51C333.684 330.099 333.493 329.437 333.493 328.522V325.078L332.051 325.008V324.28H333.563L333.675 322.18H334.585V324.28ZM347.516 326.352C347.329 325.932 347.049 325.619 346.676 325.414C346.312 325.209 345.915 325.106 345.486 325.106C345.178 325.106 344.87 325.157 344.562 325.26C344.263 325.363 343.993 325.517 343.75 325.722C343.517 325.927 343.325 326.189 343.176 326.506C343.036 326.814 342.966 327.178 342.966 327.598C342.966 328.018 343.036 328.387 343.176 328.704C343.325 329.021 343.512 329.287 343.736 329.502C343.969 329.717 344.231 329.88 344.52 329.992C344.819 330.104 345.122 330.16 345.43 330.16C345.878 330.16 346.298 330.043 346.69 329.81C347.091 329.577 347.385 329.222 347.572 328.746H348.636C348.533 329.147 348.375 329.497 348.16 329.796C347.945 330.095 347.693 330.342 347.404 330.538C347.115 330.734 346.797 330.883 346.452 330.986C346.116 331.079 345.771 331.126 345.416 331.126C344.977 331.126 344.543 331.051 344.114 330.902C343.694 330.753 343.316 330.533 342.98 330.244C342.644 329.945 342.373 329.577 342.168 329.138C341.963 328.69 341.86 328.177 341.86 327.598C341.86 327.01 341.963 326.497 342.168 326.058C342.383 325.619 342.658 325.26 342.994 324.98C343.33 324.691 343.713 324.476 344.142 324.336C344.571 324.196 345.005 324.126 345.444 324.126C345.789 324.126 346.125 324.177 346.452 324.28C346.779 324.373 347.082 324.513 347.362 324.7C347.642 324.877 347.885 325.106 348.09 325.386C348.305 325.666 348.463 325.988 348.566 326.352H347.516ZM354.774 329.782C354.652 330.015 354.494 330.216 354.298 330.384C354.102 330.552 353.882 330.692 353.64 330.804C353.406 330.916 353.154 330.995 352.884 331.042C352.622 331.098 352.366 331.126 352.114 331.126C351.806 331.126 351.507 331.089 351.218 331.014C350.928 330.939 350.672 330.823 350.448 330.664C350.233 330.496 350.06 330.291 349.93 330.048C349.799 329.796 349.734 329.497 349.734 329.152C349.734 328.779 349.799 328.452 349.93 328.172C350.07 327.892 350.256 327.659 350.49 327.472C350.732 327.285 351.008 327.145 351.316 327.052C351.624 326.959 351.955 326.912 352.31 326.912C352.702 326.912 353.103 326.949 353.514 327.024C353.924 327.089 354.298 327.215 354.634 327.402V326.422C354.634 326.142 354.564 325.909 354.424 325.722C354.293 325.535 354.12 325.391 353.906 325.288C353.7 325.185 353.472 325.115 353.22 325.078C352.977 325.031 352.739 325.008 352.506 325.008C352.114 325.008 351.745 325.05 351.4 325.134C351.054 325.209 350.737 325.33 350.448 325.498L350.266 324.63C350.592 324.462 350.961 324.336 351.372 324.252C351.792 324.168 352.226 324.126 352.674 324.126C353.056 324.126 353.425 324.163 353.78 324.238C354.144 324.313 354.461 324.443 354.732 324.63C355.012 324.807 355.231 325.045 355.39 325.344C355.558 325.643 355.637 326.011 355.628 326.45V329.264C355.628 329.451 355.628 329.619 355.628 329.768C355.637 329.908 355.665 330.025 355.712 330.118C355.758 330.211 355.833 330.277 355.936 330.314C356.048 330.351 356.206 330.356 356.412 330.328L356.426 331.042C356.146 331.089 355.903 331.107 355.698 331.098C355.492 331.089 355.32 331.037 355.18 330.944C355.04 330.851 354.937 330.711 354.872 330.524C354.806 330.337 354.774 330.09 354.774 329.782ZM354.62 328.242C354.405 328.111 354.106 327.999 353.724 327.906C353.341 327.813 352.954 327.766 352.562 327.766C352.347 327.766 352.132 327.789 351.918 327.836C351.712 327.883 351.526 327.957 351.358 328.06C351.199 328.163 351.068 328.298 350.966 328.466C350.863 328.634 350.812 328.839 350.812 329.082C350.812 329.297 350.854 329.479 350.938 329.628C351.022 329.768 351.134 329.88 351.274 329.964C351.414 330.048 351.572 330.109 351.75 330.146C351.936 330.174 352.123 330.188 352.31 330.188C352.534 330.188 352.762 330.16 352.996 330.104C353.238 330.048 353.467 329.959 353.682 329.838C353.906 329.717 354.097 329.563 354.256 329.376C354.424 329.18 354.545 328.947 354.62 328.676V328.242ZM359.071 325.204C359.276 324.812 359.561 324.537 359.925 324.378C360.289 324.21 360.686 324.126 361.115 324.126C361.703 324.126 362.23 324.294 362.697 324.63L362.431 325.554C362.216 325.414 361.988 325.307 361.745 325.232C361.512 325.148 361.264 325.106 361.003 325.106C360.76 325.106 360.527 325.148 360.303 325.232C360.079 325.316 359.878 325.433 359.701 325.582C359.533 325.731 359.398 325.918 359.295 326.142C359.192 326.357 359.141 326.595 359.141 326.856V331H358.063V325.89C358.063 325.741 358.058 325.605 358.049 325.484C358.04 325.353 358.007 325.251 357.951 325.176C357.904 325.092 357.825 325.031 357.713 324.994C357.601 324.957 357.447 324.947 357.251 324.966L357.237 324.238C357.498 324.191 357.736 324.168 357.951 324.168C358.175 324.168 358.366 324.201 358.525 324.266C358.693 324.331 358.824 324.439 358.917 324.588C359.01 324.737 359.062 324.943 359.071 325.204ZM368.801 329.558C368.568 330.071 368.236 330.459 367.807 330.72C367.387 330.981 366.906 331.117 366.365 331.126C365.861 331.126 365.413 331.033 365.021 330.846C364.638 330.659 364.316 330.407 364.055 330.09C363.794 329.763 363.593 329.39 363.453 328.97C363.322 328.541 363.257 328.088 363.257 327.612C363.257 327.071 363.346 326.585 363.523 326.156C363.7 325.717 363.934 325.349 364.223 325.05C364.522 324.751 364.867 324.523 365.259 324.364C365.651 324.205 366.066 324.126 366.505 324.126C366.86 324.126 367.214 324.182 367.569 324.294C367.924 324.397 368.274 324.565 368.619 324.798V320.752H369.711V328.774C369.711 328.998 369.706 329.208 369.697 329.404C369.688 329.591 369.702 329.754 369.739 329.894C369.786 330.025 369.865 330.123 369.977 330.188C370.089 330.244 370.266 330.258 370.509 330.23L370.523 331.028C370.252 331.075 370.01 331.093 369.795 331.084C369.58 331.075 369.398 331.019 369.249 330.916C369.1 330.804 368.988 330.641 368.913 330.426C368.838 330.211 368.801 329.922 368.801 329.558ZM368.647 325.806C368.32 325.563 367.98 325.381 367.625 325.26C367.27 325.139 366.93 325.083 366.603 325.092C366.295 325.092 366.006 325.148 365.735 325.26C365.464 325.372 365.226 325.535 365.021 325.75C364.816 325.965 364.652 326.231 364.531 326.548C364.419 326.856 364.363 327.211 364.363 327.612C364.363 327.948 364.405 328.27 364.489 328.578C364.582 328.886 364.718 329.157 364.895 329.39C365.072 329.614 365.296 329.796 365.567 329.936C365.838 330.076 366.155 330.146 366.519 330.146C366.836 330.146 367.126 330.085 367.387 329.964C367.648 329.843 367.868 329.684 368.045 329.488C368.232 329.283 368.376 329.045 368.479 328.774C368.582 328.503 368.638 328.214 368.647 327.906V325.806ZM372.659 329.096C372.678 329.311 372.743 329.493 372.855 329.642C372.976 329.782 373.126 329.899 373.303 329.992C373.49 330.085 373.695 330.151 373.919 330.188C374.143 330.225 374.367 330.244 374.591 330.244C374.824 330.244 375.053 330.221 375.277 330.174C375.501 330.127 375.702 330.057 375.879 329.964C376.056 329.871 376.201 329.749 376.313 329.6C376.425 329.451 376.486 329.273 376.495 329.068C376.495 328.872 376.453 328.713 376.369 328.592C376.294 328.471 376.178 328.373 376.019 328.298C375.86 328.214 375.66 328.149 375.417 328.102C375.184 328.046 374.913 327.995 374.605 327.948C374.269 327.911 373.933 327.859 373.597 327.794C373.27 327.729 372.972 327.631 372.701 327.5C372.44 327.369 372.22 327.197 372.043 326.982C371.875 326.758 371.786 326.469 371.777 326.114C371.768 325.769 371.842 325.47 372.001 325.218C372.16 324.966 372.37 324.761 372.631 324.602C372.902 324.434 373.205 324.313 373.541 324.238C373.877 324.163 374.222 324.126 374.577 324.126C374.922 324.126 375.263 324.168 375.599 324.252C375.944 324.327 376.248 324.443 376.509 324.602C376.78 324.761 376.994 324.961 377.153 325.204C377.312 325.447 377.386 325.731 377.377 326.058H376.327C376.327 325.881 376.276 325.727 376.173 325.596C376.08 325.456 375.949 325.344 375.781 325.26C375.622 325.167 375.436 325.101 375.221 325.064C375.016 325.017 374.801 324.994 374.577 324.994C374.362 324.994 374.148 325.017 373.933 325.064C373.718 325.101 373.527 325.162 373.359 325.246C373.191 325.33 373.056 325.442 372.953 325.582C372.85 325.722 372.804 325.89 372.813 326.086C372.822 326.413 372.981 326.641 373.289 326.772C373.606 326.893 374.078 327.001 374.703 327.094C375.058 327.141 375.408 327.197 375.753 327.262C376.098 327.318 376.406 327.416 376.677 327.556C376.948 327.687 377.162 327.873 377.321 328.116C377.489 328.349 377.568 328.667 377.559 329.068C377.559 329.413 377.475 329.717 377.307 329.978C377.148 330.23 376.934 330.44 376.663 330.608C376.392 330.776 376.075 330.902 375.711 330.986C375.356 331.07 374.983 331.117 374.591 331.126C374.227 331.126 373.868 331.093 373.513 331.028C373.168 330.963 372.855 330.851 372.575 330.692C372.304 330.533 372.08 330.323 371.903 330.062C371.726 329.801 371.623 329.479 371.595 329.096H372.659Z" fill="#004364"/>
</svg>
